PathFileType	4	(X/Y/Z)	D:\Long Term Storage\D'Arcy Smith\Coord12.trc
DataRate	CameraRate	NumFrames	NumMarkers	Units	OrigDataRate	OrigDataStartFrame	OrigNumFrames
120.00	120.00	      73	4	mm	120.00	3008	      4812
Frame#	Time	M1			M2			M3			M4			
		X1	Y1	Z1	X2	Y2	Z2	X3	Y3	Z3	X4	Y4	Z4	

3008	25.058	999.96796	308.00934	295.21268	1648.14209	294.19617	365.81421							
3009	25.067	1000.24420	303.30695	304.49869	1647.09497	291.04370	375.82321							
3010	25.075	1000.10773	299.09711	313.96527	1645.75195	288.17395	385.97363							
3011	25.083	1000.10095	295.08496	323.23615	1644.38831	285.76437	396.16382							
3012	25.092	1000.16974	290.88181	334.08496	1642.96753	283.67535	406.57333							
3013	25.100	1000.50153	287.38583	343.83124	1641.35193	281.80066	416.91971							
3014	25.108	1000.76953	284.30911	353.81659	1639.85425	280.44263	427.26215							
3015	25.117	1001.12000	281.59375	363.50717	1638.27808	279.34152	437.58130							
3016	25.125	1001.56848	279.01254	373.50314	1636.75110	278.50897	447.86749							
3017	25.133	1002.00659	276.96466	383.25528	1635.13562	278.06430	458.00482							
3018	25.142	1002.54779	275.26230	393.01215	1633.03369	277.50348	468.40778							
3019	25.150	1003.31555	273.68600	402.57343	1631.22229	277.73068	477.86044							
3020	25.158	1003.96521	272.30960	412.13144	1629.69312	278.96506	488.05014							
3021	25.167	1004.69897	271.21985	421.40927	1627.74915	279.91479	497.48404							
3022	25.175	1005.43011	270.45963	430.51569	1625.65918	281.03476	506.57083							
3023	25.183	1006.30609	269.92484	439.21774	1623.92676	282.78067	515.18799							
3024	25.192	1007.20673	269.55048	447.76831	1622.06335	284.36841	523.46130							
3025	25.200	1008.17578	269.58420	455.94601	1620.48523	286.46298	531.44623							
3026	25.208	1009.16571	269.44122	463.72098	1618.72534	288.36816	539.06116							
3027	25.217	1010.17316	269.87579	471.15103	1617.09058	290.67169	546.41815							
3028	25.225	1011.39807	270.39902	478.21796	1615.55591	292.85779	553.27930							
3029	25.233	1012.26050	270.72269	485.09180	1614.24695	295.19064	559.79565							
3030	25.242	1013.51129	271.20663	491.22394	1612.68176	297.35159	565.97949							
3031	25.250	1014.66455	271.70596	497.10941	1611.48914	299.58490	571.82220							
3032	25.258	1015.93842	272.43320	502.55493	1610.36523	301.61716	577.16479							
3033	25.267	1017.02618	273.01462	507.57693	1609.35681	303.64597	582.15625							
3034	25.275	1018.25452	273.36771	512.13367	1608.58435	305.30750	586.62842							
3035	25.283	1019.19427	273.94101	516.23950	1607.51794	306.91083	590.86224							
3036	25.292	1020.40625	274.41269	519.84088	1606.46851	308.29083	595.10645							
3037	25.300	1021.41089	274.54095	523.23785	1605.90002	309.74164	598.01660							
3038	25.308	1022.36670	275.03262	525.78534	1605.07910	310.74554	601.25616							
3039	25.317	1023.24359	275.31805	528.18939	1604.43787	311.71417	604.05737							
3040	25.325	1024.03015	275.66708	529.99634	1603.88049	312.47504	606.47119							
3041	25.333	1024.94006	275.90543	531.34381	1603.40942	312.95667	608.59100							
3042	25.342	1025.88721	276.06747	532.14532	1603.03162	313.31964	610.24481							
3043	25.350	1026.65234	276.13406	532.51147	1602.84766	313.49725	611.54254							
3044	25.358	1027.26343	276.01422	532.47394	1602.75879	313.56155	612.46008							
3045	25.367	1027.77698	275.89615	531.87616	1602.66711	313.50848	612.91937							
3046	25.375	1028.38538	275.61276	530.55341	1602.65063	313.33002	613.00549							
3047	25.383	1028.96167	275.44128	529.08002	1602.69702	313.04559	612.69196							
3048	25.392	1029.27490	275.08505	527.18835	1602.90613	312.66821	611.95966							
3049	25.400	1029.63196	274.66104	524.58246	1603.16907	312.16229	610.82977							
3050	25.408	1029.86206	274.12814	521.76160	1603.42017	311.53427	609.23273							
3051	25.417	1030.15320	273.73688	518.45801	1603.77600	310.96878	607.24756							
3052	25.425	1030.15125	273.27435	514.69543	1604.20190	310.22519	604.92206							
3053	25.433	1030.33435	272.93320	510.52966	1604.70752	309.37967	602.07971							
3054	25.442	1030.39587	272.48444	505.76065	1605.03796	308.16611	599.17255							
3055	25.450	1030.46558	272.03110	500.84274	1605.71045	307.44601	595.56830							
3056	25.458	1030.35474	271.72180	495.46399	1606.32336	306.67419	591.54718							
3057	25.467	1030.28149	271.38110	489.71249	1606.83923	305.87375	586.95953							
3058	25.475	1030.37988	271.15649	483.71524	1607.25415	305.13535	582.09491							
3059	25.483	1030.05615	270.91397	477.26718	1607.75928	304.25464	576.73145							
3060	25.492	1029.94128	270.99921	470.52951	1608.45813	303.41010	570.64948							
3061	25.500	1029.62158	271.21414	463.67316	1609.23999	302.58713	564.16589							
3062	25.508	1029.22864	271.49478	456.28589	1609.90820	301.83817	557.22754							
3063	25.517	1029.10767	271.99152	448.90463	1610.63745	301.24603	549.87402							
3064	25.525	1028.68518	272.66660	441.05716	1611.40149	300.70862	542.14154							
3065	25.533	1028.43530	273.54486	432.96164	1612.17847	300.19327	533.84601							
3066	25.542	1028.03479	274.73453	424.69357	1613.14197	299.83078	525.19775							
3067	25.550	1027.51721	275.96677	416.29697	1614.09595	299.55042	516.23389							
3068	25.558	1027.24976	277.41513	407.48074	1615.25952	299.37924	506.82251							
3069	25.567	1026.99451	279.00211	398.87579	1616.40833	299.42456	497.20395							
3070	25.575	1026.68506	280.93375	390.16684	1617.41309	299.53192	487.27682							
3071	25.583	1026.21497	283.05603	381.11697	1617.83716	299.93759	476.92014							
3072	25.592	1025.76355	285.38617	372.12430	1618.80713	300.03452	466.23312							
3073	25.600	1025.50635	288.08789	363.28204	1619.92676	300.92737	455.36807							
3074	25.608	1025.07471	290.89160	354.48169	1620.80237	301.69095	444.79837							
3075	25.617	1024.66980	294.01999	345.64468	1622.09534	302.84476	433.77585							
3076	25.625	1024.16833	297.22256	336.95877	1623.21606	304.40759	423.00681							
3077	25.633	1023.65387	300.60129	328.21420	1624.43872	305.91074	411.94388							
3078	25.642	1023.35522	304.30667	319.05594	1626.30383	307.90439	400.18066							
3079	25.650	1022.98041	308.04135	310.63208	1626.54785	309.79730	389.84012							
3080	25.658	1022.60468	311.94058	302.40094	1628.44519	312.30603	378.77728							
